<mxfile host="Electron" modified="2023-10-30T13:24:11.326Z" agent="Mozilla/5.0 (Windows NT 10.0; Win64; x64) AppleWebKit/537.36 (KHTML, like Gecko) draw.io/21.7.5 Chrome/114.0.5735.289 Electron/25.8.1 Safari/537.36" etag="IXJ3DAXWS7VDIlR8xkpX" version="21.7.5" type="device">
  <diagram name="Ejercicio 20" id="7LZC55QaoygoQnSEbU2q">
    <mxGraphModel dx="408" dy="496" grid="1" gridSize="10" guides="1" tooltips="1" connect="1" arrows="1" fold="1" page="1" pageScale="1" pageWidth="827" pageHeight="1169" math="0" shadow="0">
      <root>
        <mxCell id="0" />
        <mxCell id="1" parent="0" />
        <mxCell id="k_CYZGJoUyyhWI2OBocA-1" value="Farola" style="swimlane;fontStyle=1;align=center;verticalAlign=top;childLayout=stackLayout;horizontal=1;startSize=26;horizontalStack=0;resizeParent=1;resizeParentMax=0;resizeLast=0;collapsible=1;marginBottom=0;whiteSpace=wrap;html=1;" parent="1" vertex="1">
          <mxGeometry x="290" y="40" width="300" height="220" as="geometry" />
        </mxCell>
        <mxCell id="k_CYZGJoUyyhWI2OBocA-2" value="- fabricante: String&lt;br&gt;- cantCiclos: Integer&lt;br&gt;- on: Boolean&lt;br&gt;- estado: Boolean" style="text;strokeColor=none;fillColor=none;align=left;verticalAlign=top;spacingLeft=4;spacingRight=4;overflow=hidden;rotatable=0;points=[[0,0.5],[1,0.5]];portConstraint=eastwest;whiteSpace=wrap;html=1;" parent="k_CYZGJoUyyhWI2OBocA-1" vertex="1">
          <mxGeometry y="26" width="300" height="64" as="geometry" />
        </mxCell>
        <mxCell id="k_CYZGJoUyyhWI2OBocA-3" value="" style="line;strokeWidth=1;fillColor=none;align=left;verticalAlign=middle;spacingTop=-1;spacingLeft=3;spacingRight=3;rotatable=0;labelPosition=right;points=[];portConstraint=eastwest;strokeColor=inherit;" parent="k_CYZGJoUyyhWI2OBocA-1" vertex="1">
          <mxGeometry y="90" width="300" height="8" as="geometry" />
        </mxCell>
        <mxCell id="k_CYZGJoUyyhWI2OBocA-4" value="+ &amp;lt;&amp;lt;create&amp;gt;&amp;gt; (fabricante:String, cantCiclos:Integer)&lt;br&gt;+ pairWithNeighbor (otraFarola:Farola)&lt;br&gt;+ getNeighbros ():Farola[*]&lt;br&gt;+ turnOn()&lt;br&gt;+ turnOff()&lt;br&gt;+ estaVencida():Boolean&lt;br&gt;- isOn():Boolean&lt;br&gt;+ farlolasConFocosVencidos():Farola[*]" style="text;strokeColor=none;fillColor=none;align=left;verticalAlign=top;spacingLeft=4;spacingRight=4;overflow=hidden;rotatable=0;points=[[0,0.5],[1,0.5]];portConstraint=eastwest;whiteSpace=wrap;html=1;" parent="k_CYZGJoUyyhWI2OBocA-1" vertex="1">
          <mxGeometry y="98" width="300" height="122" as="geometry" />
        </mxCell>
        <mxCell id="k_CYZGJoUyyhWI2OBocA-5" value="" style="endArrow=classic;html=1;rounded=0;exitX=0;exitY=0.5;exitDx=0;exitDy=0;entryX=0;entryY=0.5;entryDx=0;entryDy=0;edgeStyle=orthogonalEdgeStyle;" parent="k_CYZGJoUyyhWI2OBocA-1" source="k_CYZGJoUyyhWI2OBocA-4" target="k_CYZGJoUyyhWI2OBocA-2" edge="1">
          <mxGeometry width="50" height="50" relative="1" as="geometry">
            <mxPoint x="120" y="200" as="sourcePoint" />
            <mxPoint x="170" y="150" as="targetPoint" />
          </mxGeometry>
        </mxCell>
        <mxCell id="k_CYZGJoUyyhWI2OBocA-6" value="0..*&lt;br&gt;vecinas" style="text;html=1;align=center;verticalAlign=middle;resizable=0;points=[];autosize=1;strokeColor=none;fillColor=none;" parent="1" vertex="1">
          <mxGeometry x="220" y="115" width="60" height="40" as="geometry" />
        </mxCell>
      </root>
    </mxGraphModel>
  </diagram>
</mxfile>
